<svg width="1698" height="1111" viewBox="0 0 1698 1111" fill="none" xmlns="http://www.w3.org/2000/svg">
<path d="M1153 9.99999C1154.35 10.3101 1155.7 10.62 1157.04 10.9297C1208.93 23.1431 1261.85 47.5549 1296 90C1296.81 90.9797 1297.61 91.9594 1298.44 92.9687C1325.04 125.745 1346.62 167.346 1350 210C1350.73 209.914 1351.47 209.829 1352.22 209.74C1389.23 205.45 1425.32 204.028 1462 212C1463.03 212.22 1463.03 212.22 1464.07 212.444C1481.97 216.367 1500.65 221.388 1516.92 229.917C1519.43 231.225 1521.96 232.487 1524.49 233.754C1535.83 239.493 1546.7 245.537 1557 253C1558.58 254.141 1558.58 254.141 1560.19 255.305C1580.72 270.462 1600.24 287.856 1616 308C1616.9 309.094 1617.81 310.185 1618.72 311.273C1636.12 332.275 1651.05 356.141 1662.13 381.068C1662.97 382.943 1663.86 384.795 1664.76 386.645C1671.9 401.366 1677.61 416.671 1681.99 432.434C1682.62 434.652 1683.29 436.86 1684.02 439.047C1687.35 449.066 1689.41 459.552 1691.56 469.875C1691.76 470.786 1691.96 471.697 1692.16 472.636C1696.56 494.301 1697.51 516.079 1697.38 538.125C1697.37 539.413 1697.37 540.702 1697.36 542.029C1697.27 569.019 1695.24 594.985 1690.42 621.567C1689.85 624.869 1689.42 628.176 1689 631.5C1688.05 638.278 1686.42 644.832 1684.67 651.438C1683.88 654.464 1683.1 657.496 1682.32 660.527C1679.36 672.062 1676.41 683.588 1673 695C1672.67 696.181 1672.34 697.362 1672 698.578C1662.77 730.75 1645.27 760.179 1623 785C1621.75 786.415 1621.75 786.415 1620.47 787.859C1609.2 800.403 1597.42 812.752 1584 823C1582.69 824.024 1581.38 825.049 1580.08 826.074C1555.88 844.954 1529.69 860.3 1500.97 871.239C1498.93 872.027 1496.91 872.852 1494.89 873.68C1464.39 885.886 1433.47 888.509 1401 888C1400.02 887.991 1399.03 887.983 1398.02 887.974C1385.45 887.837 1374.03 885.582 1362 882C1361.16 881.755 1360.32 881.51 1359.46 881.258C1334.76 873.911 1310.48 863.12 1291 846C1290.15 845.281 1289.3 844.561 1288.42 843.82C1261.05 820.196 1248.42 783.873 1245.35 748.66C1243.47 722.126 1244.54 694.653 1252 669C1252.2 668.301 1252.4 667.601 1252.6 666.881C1257.65 649.545 1265.13 632.49 1276 618C1276.9 616.77 1276.9 616.77 1277.82 615.516C1285.79 605.057 1295.07 594.845 1307 589C1308.02 588.457 1308.02 588.457 1309.05 587.902C1330.44 577.289 1356.8 578.807 1379.02 585.975C1383.1 587.375 1387.16 588.807 1391.19 590.357C1396.69 592.435 1401.1 593.812 1407 593C1409.43 590.936 1409.9 589.645 1410.4 586.52C1410.33 579.004 1409.7 572.431 1404.94 566.375C1380.51 546.626 1349.89 540.221 1319.01 543.469C1291.22 546.997 1267.1 559.794 1247 579C1246.27 579.66 1245.53 580.32 1244.77 581C1225 599.449 1212.04 628.415 1207.59 654.711C1207.14 657.233 1206.64 659.724 1206.09 662.227C1193.56 720.279 1195.51 784.803 1228.34 836.093C1234.78 845.85 1241.83 854.645 1250 863C1250.74 863.786 1251.47 864.573 1252.23 865.383C1272.02 886.076 1299.7 901.031 1327 909C1325.15 952.615 1296.93 993.09 1266.27 1021.94C1260.2 1027.44 1253.7 1032.31 1247 1037C1246.35 1037.46 1245.71 1037.92 1245.04 1038.39C1208.62 1063.98 1162.63 1081 1118.62 1087.31C1114.89 1087.85 1111.2 1088.51 1107.49 1089.22C1092.96 1091.98 1078.49 1092.09 1063.75 1092.12C1062.73 1092.13 1062.73 1092.13 1061.69 1092.13C1029.1 1092.23 997.024 1085.1 968 1070C966.617 1069.31 965.235 1068.61 963.852 1067.92C946.118 1058.9 929.867 1047.56 915.246 1034.06C913.29 1032.27 911.29 1030.57 909.25 1028.88C895.682 1016.97 883.52 1002.33 874 987C874 986.34 874 985.68 874 985C870.868 987.278 868.306 989.715 865.812 992.652C862.07 996.974 858.115 1001.03 854.062 1005.06C853.398 1005.73 852.733 1006.4 852.049 1007.09C848.087 1011.04 844.014 1014.81 839.775 1018.46C837.633 1020.32 835.571 1022.25 833.5 1024.19C827.306 1029.78 820.605 1034.66 813.89 1039.6C811.315 1041.51 808.788 1043.48 806.25 1045.44C780.651 1064.58 752.222 1079.29 723 1092C722.321 1092.3 721.641 1092.59 720.941 1092.9C710.863 1097.26 700.617 1100.29 690 1103C689.065 1103.24 688.131 1103.48 687.168 1103.73C658.308 1111.11 627.309 1113.36 598 1107C597.164 1106.83 596.329 1106.66 595.468 1106.48C560.421 1099.2 527.656 1083.79 500 1061C499.445 1060.55 498.891 1060.09 498.319 1059.63C465.932 1033.02 442.599 999.65 429 960C428.752 959.29 428.503 958.579 428.247 957.848C414.68 918.711 406.999 864.389 424 825C424.407 824.049 424.815 823.097 425.234 822.117C439.294 791.866 467.8 769.999 498.518 758.377C517.572 751.575 537.059 748.621 557.239 748.794C559.461 748.813 561.682 748.815 563.904 748.814C574.752 748.839 584.555 749.577 595 752.625C595.913 752.891 596.826 753.157 597.766 753.43C618.106 759.517 635.363 768.59 651 783C651.506 783.457 652.013 783.914 652.534 784.385C669.961 800.251 681.469 820.979 690.176 842.625C693.398 851.678 693.398 851.678 700 858C702.668 858.251 702.668 858.251 705 858C708.373 851.619 709.631 846.443 709.438 839.25C709.424 838.372 709.41 837.493 709.395 836.588C709.193 829.409 708.016 822.894 706 816C705.652 814.626 705.308 813.251 704.969 811.875C696.769 779.411 679.823 755.521 650.87 738.098C609.03 713.523 556.468 708.873 509.75 720.25C475.866 729.079 445.569 744.767 421 770C420.505 770.45 420.01 770.9 419.5 771.363C393.54 795.581 379.336 837.166 377.839 871.719C377.793 876.125 377.755 880.531 377.75 884.938C377.748 885.736 377.746 886.535 377.744 887.357C377.735 901.097 378.803 914.427 381 928C381.343 930.332 381.672 932.666 382 935C373.68 936.425 365.346 937.742 357 939C355.958 939.16 354.916 939.319 353.843 939.484C338.371 941.774 323.113 942.267 307.5 942.25C306.081 942.249 306.081 942.249 304.633 942.248C301.932 942.241 299.232 942.225 296.531 942.203C295.714 942.199 294.896 942.194 294.054 942.19C290.788 942.149 288.119 942.04 285 941C282.746 940.702 280.487 940.442 278.227 940.203C276.84 940.051 275.454 939.898 274.069 939.745C273.343 939.664 272.618 939.584 271.87 939.502C257.971 937.943 244.457 935.936 231 932C230.243 931.781 229.486 931.562 228.706 931.337C206.674 924.825 185.43 914.887 167.599 900.307C166.074 899.06 164.531 897.834 162.988 896.609C154.37 889.609 146.549 881.761 138.688 873.938C138.128 873.383 137.568 872.828 136.991 872.257C130.641 865.953 124.638 859.568 119.061 852.555C117.078 850.096 115.016 847.749 112.895 845.41C108.886 840.946 105.26 836.254 101.688 831.438C101.039 830.566 100.39 829.695 99.7214 828.797C89.4694 814.956 80.0285 800.665 71 786C70.4977 785.189 69.9955 784.378 69.478 783.543C43.4728 741.35 22.3356 695.111 7 648C6.72688 647.168 6.45376 646.336 6.17236 645.479C3.74639 638.06 1.5061 630.667 0 623C1.00418 623.508 2.00836 624.016 3.04297 624.539C16.7801 631.465 30.5175 637.794 45 643C45.8095 643.298 46.6191 643.596 47.4531 643.902C90.8222 659.214 137.441 655.356 178.875 636.188C205.337 623.366 227.756 604.564 249.121 584.66C252.101 581.907 255.131 579.229 258.219 576.598C261.18 573.941 263.937 571.084 266.722 568.244C274.066 560.758 281.321 553.411 289.578 546.926C291.878 545.097 294.029 543.18 296.188 541.188C310.025 528.78 325.95 518.305 342 509C342.985 508.41 343.97 507.819 344.984 507.211C368.763 493.2 394.614 480.799 422.652 480.867C423.551 480.866 424.45 480.865 425.377 480.864C427.272 480.864 429.167 480.865 431.062 480.87C433.899 480.875 436.735 480.87 439.572 480.863C451.082 480.86 462.517 481.222 474 482C473.839 481.2 473.678 480.399 473.513 479.574C472.898 475.292 472.819 471.129 472.797 466.809C472.79 465.919 472.783 465.029 472.776 464.112C472.758 461.221 472.752 458.329 472.75 455.438C472.749 454.449 472.749 453.461 472.748 452.443C472.775 427.361 475.292 403.466 481 379C481.42 377.124 481.84 375.248 482.258 373.371C484.604 363.004 487.423 353.017 491 343C491.481 341.598 491.96 340.196 492.438 338.793C495.295 330.45 498.378 322.267 502.005 314.222C502.744 312.573 503.472 310.919 504.194 309.263C517.335 279.166 534.268 249.933 557 226C557.489 225.478 557.978 224.956 558.482 224.419C595.9 184.735 650.231 163.988 704.245 162.075C719.166 161.67 734.125 161.475 749 162.875C749.835 162.953 750.67 163.032 751.53 163.113C755.927 163.59 759.838 164.413 764 166C763.236 170.694 761.677 175.024 760.125 179.5C757.616 186.944 755.458 194.269 754 202C753.748 203.21 753.748 203.21 753.492 204.444C750.486 219.156 749.598 233.531 749.562 248.5C749.557 249.335 749.55 250.17 749.544 251.03C749.487 262.982 750.669 274.282 753 286C753.183 286.946 753.365 287.891 753.553 288.865C760.147 321.08 775.036 352.509 797 377C798.125 378.307 798.125 378.307 799.273 379.641C824.632 408.752 862.317 428.948 899 440C899.709 440.214 900.418 440.428 901.149 440.648C924.075 447.476 946.976 450.446 970.875 450.438C972.283 450.439 972.283 450.439 973.72 450.44C1018.39 450.348 1057.44 435.411 1089.28 403.734C1114.36 377.104 1123.18 343.215 1122.18 307.435C1120.63 277.646 1109.51 248.22 1096.81 221.562C1096.33 220.539 1095.84 219.515 1095.34 218.46C1090.97 209.218 1090.97 209.218 1085 201C1080.66 199.602 1077.77 200.628 1073.75 202.562C1069.19 206.6 1067.39 209.345 1066.51 215.309C1065.94 226.399 1069.09 235.423 1073.09 245.655C1079.58 262.377 1082.27 277.513 1082.25 295.312C1082.25 296.004 1082.25 296.695 1082.25 297.408C1082.15 326.515 1075.27 356.951 1055 379C1054.19 379.913 1053.38 380.825 1052.55 381.766C1039.37 395.869 1021.59 402.86 1003 407C1002.22 407.182 1001.44 407.363 1000.63 407.551C993.267 409.093 986.092 409.276 978.585 409.206C976.569 409.188 974.553 409.185 972.537 409.186C950.611 409.088 928.267 406.019 907.723 398.027C905.398 397.15 903.073 396.365 900.711 395.598C880.894 389.029 863.054 378.234 847 365C846.181 364.335 845.363 363.67 844.52 362.984C838.555 357.933 833.783 352.159 829 346C828.246 345.073 827.492 344.146 826.715 343.191C796.445 304.925 795 250.849 800.134 204.481C804.521 169.451 814.124 137.163 836 109C836.98 107.704 836.98 107.704 837.98 106.383C876.617 56.5138 937.344 24.899 998 11C999.515 10.6032 1001.03 10.2019 1002.54 9.79686C1050.6 -2.83302 1104.78 -1.62901 1153 9.99999Z" fill="#B70505"/>
</svg>
